<?xml version="1.0" encoding="UTF-8"?>
<svg width="144px" height="36px" viewBox="0 0 144 36" version="1.1" xmlns="http://www.w3.org/2000/svg" xmlns:xlink="http://www.w3.org/1999/xlink">
    <!-- Generator: Sketch 64 (93537) - https://sketch.com -->
    <title>Group</title>
    <desc>Created with Sketch.</desc>
    <g id="Page-1" stroke="none" stroke-width="1" fill="none" fill-rule="evenodd">
        <g id="business(edit)" transform="translate(-171.000000, -72.000000)" fill="#FFFFFF">
            <g id="Group" transform="translate(171.000000, 72.000000)">
                <path d="M97.3560688,24.6759647 C94.0624435,24.6759647 91.2622769,21.840974 91.2622769,17.8388121 C91.2622769,13.8363982 94.0624435,11.0016596 97.3560688,11.0016596 C100.485374,11.0016596 103.45011,13.8363982 103.45011,17.8388121 C103.45011,21.840974 100.485374,24.6759647 97.3560688,24.6759647 L97.3560688,24.6759647 Z M103.45011,12.8361098 L103.416997,12.8361098 C102.725109,11.3684488 100.683056,9.16720936 97.1914996,9.16720936 C92.87635,9.16720936 89.2859523,12.8361098 89.2859523,17.8388121 C89.2859523,22.8417665 92.87635,26.5101628 97.1914996,26.5101628 C100.683056,26.5101628 102.725109,24.3091755 103.416997,22.8417665 L103.45011,22.8417665 L103.45011,26.1766493 L105.426185,26.1766493 L105.426185,9.50072285 L103.45011,9.50072285 L103.45011,12.8361098 Z M78.1694378,24.6759647 C75.0401328,24.6759647 72.0756459,21.840974 72.0756459,17.8388121 C72.0756459,13.8363982 75.0401328,11.0016596 78.1694378,11.0016596 C81.4633121,11.0016596 84.2632298,13.8363982 84.2632298,17.8388121 C84.2632298,21.840974 81.4633121,24.6759647 78.1694378,24.6759647 L78.1694378,24.6759647 Z M78.334256,9.16720936 C74.9084276,9.16720936 72.7015567,11.3351731 72.10851,12.8361098 L72.0756459,12.8361098 L72.0756459,-4.26325641e-13 L70.0993214,-4.26325641e-13 L70.0993214,26.1769014 L72.0756459,26.1769014 L72.0756459,22.8417665 L72.10851,22.8417665 C72.7015567,24.3424512 74.9084276,26.5101628 78.334256,26.5101628 C82.6491567,26.5101628 86.2395543,22.8417665 86.2395543,17.8388121 C86.2395543,12.8361098 82.6491567,9.16720936 78.334256,9.16720936 L78.334256,9.16720936 Z M118.354704,9.16720936 C114.929125,9.16720936 113.084505,11.0016596 112.458594,12.3357135 L112.425481,12.3357135 L112.425481,9.50072285 L110.449406,9.50072285 L110.449406,26.1766493 L112.425481,26.1766493 L112.425481,17.0049024 C112.425481,13.5364125 114.863148,11.0016596 118.025566,11.0016596 C120.825234,11.0016596 122.636741,12.8361098 122.636741,16.3378754 L122.636741,26.1766493 L124.613065,26.1766493 L124.613065,16.3378754 C124.613065,11.8353173 121.978215,9.16720936 118.354704,9.16720936 L118.354704,9.16720936 Z M129.636286,-4.26325641e-13 L129.636286,26.1769014 L131.61261,26.1769014 L131.61261,17.4574018 L131.61261,-4.26325641e-13 L129.636286,-4.26325641e-13 Z M134.435184,17.4574018 L143.250468,9.50097493 L140.428143,9.50097493 L131.61261,17.4574018 L141.067996,26.1769014 L143.976216,26.1769014 L134.435184,17.4574018 Z" id="Fill-1"></path>
                <path d="M11.5066506,10.4112607 L8.15277456,26.3873887 L4.79914745,10.4112607 C4.69706971,10.0384214 4.36295185,9.76288833 3.96186104,9.76288833 L-7.88702437e-13,9.76288833 L3.48981375,26.3873887 L8.15277456,26.3873887 L6.14756946,35.9397897 L10.8105303,35.9397897 L16.3057981,9.76288833 L12.343937,9.76288833 C11.9430952,9.76288833 11.6087284,10.0384214 11.5066506,10.4112607 L11.5066506,10.4112607 Z" id="Path"></path>
                <path d="M26.9482298,9.15271884 C32.098923,9.15271884 35.6402736,13.0966482 35.6402736,17.9536432 L35.6402736,17.9536432 L35.6402736,18.9304873 L22.7632916,18.9304873 C23.084214,21.0500499 24.8551382,22.8429055 26.9482298,22.8429055 C29.8447478,22.8429055 30.6494191,20.8866964 30.6494191,20.8866964 L30.6494191,20.8866964 L35.4791899,20.8866964 C35.4791899,20.8866964 34.0294371,26.7535591 26.9482298,26.7535591 C21.9586202,26.7535591 18.0946044,22.8429055 18.0946044,17.9536432 C18.0946044,13.0636245 21.9586202,9.15271884 26.9482298,9.15271884 Z M26.9449317,13.2205154 C24.8518402,13.2205154 23.4038301,14.6881765 22.9198323,16.3176785 L22.9198323,16.3176785 L30.8074537,16.3176785 C30.4860333,14.6881765 29.0367784,13.2205154 26.9449317,13.2205154 Z" id="Combined-Shape"></path>
                <path d="M56.8646362,9.15271884 C62.0158274,9.15271884 65.8781004,13.0638766 65.8781004,17.9538952 C65.8781004,22.8429055 62.0158274,26.7538112 56.8646362,26.7538112 C51.713943,26.7538112 47.8501762,22.8429055 47.8501762,17.9538952 C47.8501762,13.0638766 51.713943,9.15271884 56.8646362,9.15271884 Z M57.0211769,13.2205154 C54.6061671,13.2205154 52.675404,15.1764725 52.675404,18.1105341 C52.675404,21.0433352 54.6061671,22.9995443 57.0211769,22.9995443 C59.4359378,22.9995443 61.365954,21.0433352 61.365954,18.1105341 C61.365954,15.1764725 59.4359378,13.2205154 57.0211769,13.2205154 Z" id="Combined-Shape"></path>
                <path d="M44.1950369,0.203566293 C43.7939461,0.203566293 43.4598282,0.479099355 43.3577505,0.852190785 L37.9986693,26.3804677 L42.6616301,26.3804677 L48.1568979,0.203566293 L44.1950369,0.203566293 Z" id="Combined-Shape"></path>
                <path d="M44.1950369,0.203566293 C43.7939461,0.203566293 43.4598282,0.479099355 43.3577505,0.852190785 L37.9986693,26.3804677 L42.6616301,26.3804677 L48.1568979,0.203566293 L44.1950369,0.203566293 Z" id="Combined-Shape"></path>
            </g>
        </g>
    </g>
</svg>